<svg width="55" height="45" viewBox="0 0 55 45" fill="none" xmlns="http://www.w3.org/2000/svg">
<path fill-rule="evenodd" clip-rule="evenodd" d="M32.25 18.6195L38.25 22.0837L32.25 25.5478L19 33.1976V38.9711L48.25 22.0837L19 5.19615V10.9697L32.25 18.6195ZM16 9.23761V3.4641V0L19 1.73205L51.25 20.3516L54.25 22.0837L51.25 23.8157L19 42.4352L16 44.1673V40.7032V34.9297L6 40.7032L0 44.1673L2.03759e-06 37.2391L3.36252e-06 6.9282L3.66536e-06 0L6 3.4641L16 9.23761ZM16 28.0015L6 33.775L6 10.3923L16 16.1658L16 28.0015ZM19 26.2694L19 17.8979L26.25 22.0837L19 26.2694Z" fill="white"/>
</svg>
