<svg width="55" height="45" viewBox="0 0 55 45" fill="none" xmlns="http://www.w3.org/2000/svg">
<path fill-rule="evenodd" clip-rule="evenodd" d="M3 24.232L0 22.5L3 20.7679L35.25 2.14837L38.25 0.416321V3.88042V9.65393L48.25 3.88042L54.25 0.416321L54.25 7.34452V37.6554V44.5836L48.25 41.1195L38.25 35.346V41.1195V44.5836L35.25 42.8516L3 24.232ZM38.25 28.4178L48.25 34.1913V10.8086L38.25 16.5821L38.25 28.4178ZM35.25 18.3142V26.6858L28 22.5L35.25 18.3142ZM35.25 11.386L22 19.0359L16 22.5L22 25.9641L35.25 33.614V39.3875L6 22.5L35.25 5.61247V11.386Z" fill="white"/>
</svg>
